<svg width="744" height="777" viewBox="0 0 744 777" fill="none" xmlns="http://www.w3.org/2000/svg">
<rect x="97.8457" y="195.692" width="524.308" height="524.308" rx="262.154" fill="url(#paint0_linear_1077_32000)"/>
<path d="M451.383 491.596L454.055 505.823L454.472 508.024L457.386 523.522C449.574 544.042 420.639 530.07 420.639 530.07L416.057 508.91L414.932 503.717L413.436 496.719L451.383 491.596Z" fill="#F9CBA2"/>
<path d="M451.382 491.596L454.054 505.823C440.007 511.614 423.133 505.457 414.931 503.718L413.435 496.719L451.382 491.596Z" fill="#E5AD83"/>
<path d="M454.471 508.023L457.385 523.521C449.573 544.041 420.638 530.069 420.638 530.069L416.056 508.909C419.563 510.841 423.452 511.978 427.447 512.239C436.405 512.792 446.055 512.213 454.471 508.023Z" fill="url(#paint1_linear_1077_32000)"/>
<path opacity="0.9" d="M401.213 480.497C400.715 479.635 397.149 433.047 386.715 399.072C362.076 418.432 307.516 436.912 307.516 436.912L271.045 436.911L274.958 375.313C274.958 375.313 307.516 367.393 316.316 367.393C351.515 359.396 385.233 337.474 409.559 342.676C409.559 342.676 433.862 347.79 440.171 392.107C445.6 430.147 457.703 443.273 458.447 483.236C443.208 494.088 433.425 506.095 401.213 480.497Z" fill="url(#paint2_linear_1077_32000)"/>
<path d="M399.68 466.588L400.536 471.332C400.536 471.332 411.03 478.101 427.897 478C447.288 477.891 456.63 468.834 456.63 468.834L456.291 463.967C456.291 463.967 460.869 467.335 461.69 470.023C462.51 472.71 464.597 492.04 463.894 493.382C463.19 494.724 451.222 505.768 427.101 503.553C419.691 502.875 403.72 497.916 401.759 493.37C399.955 489.215 397.556 471.736 397.778 469.8C398.004 468.535 398.679 467.394 399.68 466.588Z" fill="url(#paint3_linear_1077_32000)"/>
<path opacity="0.8" d="M399.68 466.588L400.536 471.332C400.536 471.332 411.03 478.101 427.897 478C447.288 477.891 456.63 468.834 456.63 468.834L456.291 463.967C456.291 463.967 460.869 467.335 461.69 470.023C462.51 472.71 464.597 492.04 463.894 493.382C463.19 494.724 451.222 505.768 427.101 503.553C419.691 502.875 403.72 497.916 401.759 493.37C399.955 489.215 397.556 471.736 397.778 469.8C398.004 468.535 398.679 467.394 399.68 466.588Z" fill="url(#paint4_linear_1077_32000)"/>
<path d="M523.054 537.711C516.724 550.953 511.442 558.075 503.841 558.965C496.239 559.855 464.601 559.746 453.051 563.685C441.502 567.624 425.967 562.256 424.676 559.787C423.788 558.111 421.428 548.467 419.136 539.807C418.086 535.852 417.048 532.095 416.174 529.394C414.973 525.691 418.16 525.92 419.367 527.166C420.447 528.309 424.063 530.431 426.494 530.736C432.922 531.557 444.742 529.211 446.952 527.377C449.161 525.543 452.191 518.382 454.52 514.49C456.85 510.598 459.44 510.585 463.346 512.453C467.253 514.32 481.762 521.256 488.778 523.791C495.794 526.325 497.192 525.548 506.529 524.456C508.097 524.271 509.672 524.168 511.25 524.147C519.707 524.048 528.362 526.609 523.054 537.711Z" fill="url(#paint5_linear_1077_32000)"/>
<path d="M523.052 537.711C516.722 550.952 511.44 558.075 503.838 558.964C496.237 559.854 464.598 559.745 453.049 563.684C441.499 567.623 425.965 562.255 424.674 559.786C423.785 558.11 421.426 548.466 419.134 539.806C426.305 538.98 434.562 542.058 440.448 552.035C441.351 553.562 447.88 554.381 466.019 551.747C484.993 548.979 496.93 551.833 499.556 549.14C501.982 546.683 509.492 534.494 511.241 524.162C519.704 524.047 528.359 526.608 523.052 537.711Z" fill="url(#paint6_linear_1077_32000)"/>
<path d="M326.751 299.537C323.936 312.789 317.909 344.56 316.628 352.851L312.94 366.882L277.105 376.939C277.105 376.939 213.332 383.972 193.515 372.104L203.848 324.267C203.848 324.267 214.839 273.894 213.079 269.383C194.972 222.956 261.097 191.885 296.102 198.979C315.448 204.047 335.394 214.252 342.563 221.633C349.041 228.324 351.394 225.485 362.593 262.924C352.746 272.247 332.239 273.707 326.751 299.537Z" fill="url(#paint7_linear_1077_32000)"/>
<path d="M440.511 313.35C439.941 318.695 449.066 317.523 444.657 319.986C412.852 335.815 393.16 329.567 362.116 332.894C355.633 331.623 345.676 315.792 344.04 309.468C340.89 297.288 322.351 272.539 321.563 256.871L342.334 221.228C349.559 227.245 350.523 239.361 361.951 266.073C365.793 275.042 370.227 285.198 374.698 297.789C384.225 299.837 419.436 308.504 436.725 305.8C445.37 307.778 440.93 309.414 440.511 313.35Z" fill="url(#paint8_linear_1077_32000)"/>
<path d="M440.511 313.35C439.941 318.695 449.066 317.523 444.657 319.986C412.852 335.815 393.16 329.567 362.116 332.894C355.633 331.623 345.676 315.792 344.04 309.468C340.89 297.288 322.351 272.539 321.563 256.871L342.334 221.228C349.559 227.245 350.523 239.361 361.951 266.073C365.793 275.042 370.227 285.198 374.698 297.789C384.225 299.837 419.436 308.504 436.725 305.8C445.37 307.778 440.93 309.414 440.511 313.35Z" fill="#ECB88E"/>
<mask id="mask0_1077_32000" style="mask-type:alpha" maskUnits="userSpaceOnUse" x="321" y="221" width="125" height="112">
<path d="M440.511 313.35C439.941 318.695 449.066 317.523 444.657 319.986C412.852 335.815 393.16 329.567 362.116 332.894C355.633 331.623 345.676 315.792 344.04 309.468C340.89 297.288 322.351 272.539 321.563 256.871L342.334 221.228C349.559 227.245 350.523 239.361 361.951 266.073C365.793 275.042 370.227 285.198 374.698 297.789C384.225 299.837 419.436 308.504 436.725 305.8C445.37 307.778 440.93 309.414 440.511 313.35Z" fill="#ECB88E"/>
</mask>
<g mask="url(#mask0_1077_32000)">
<path d="M312.938 280.424C322.819 292.19 327.158 297.33 335.367 306.298C335.821 289.316 352.742 270.532 364.224 261.754L347.676 244.571C342.655 249.672 312.938 280.424 312.938 280.424Z" fill="#E5AD83"/>
</g>
<path d="M468.394 328.371C467.043 330.11 465 328.541 463.8 329.904C462.841 330.968 462.509 332.85 459.563 333.31C456.924 333.723 457.848 334.804 455.646 335.962C453.445 337.121 452.071 335.913 450.908 336.548C449.121 337.518 446.247 338.503 444.269 336.612C442.914 335.319 439.366 331.086 435.893 328.675C434.456 327.674 433.031 326.986 431.781 326.944C431.648 326.938 431.516 326.94 431.384 326.951C429.323 327.175 427.251 327.283 425.178 327.272C422.301 327.155 420.232 326.322 418.248 323.668C414.895 319.162 416.866 308.6 423.058 306.58C423.635 306.398 424.223 306.251 424.818 306.14C429.286 305.286 437.19 305.12 442.892 305.143C444.06 305.153 445.137 305.172 446.073 305.19C447.175 305.214 448.08 305.246 448.716 305.275C453.632 305.508 460.578 310.001 463.557 313.404L459.398 316.053C459.398 316.053 466.501 323.019 467.256 323.843C468.012 324.667 469.632 326.783 468.394 328.371Z" fill="#ECB88E"/>
<path d="M448.004 338.068C447.288 338.217 446.548 338.193 445.844 337.996C445.14 337.8 444.493 337.438 443.958 336.94C443.878 336.856 443.833 336.744 443.834 336.628C443.834 336.511 443.879 336.4 443.96 336.316C444.04 336.232 444.15 336.182 444.266 336.177C444.383 336.172 444.496 336.212 444.584 336.289C446.433 338.053 449.207 336.961 450.696 336.156C451.294 335.888 451.963 335.824 452.602 335.973C453.565 336.165 454.566 336.023 455.438 335.57C456.034 335.278 456.546 334.839 456.926 334.295C457.382 333.698 457.811 333.137 459.494 332.873C461.534 332.554 462.176 331.539 462.792 330.569C462.99 330.24 463.213 329.927 463.46 329.633C464.159 328.837 465.079 328.844 465.895 328.854C466.71 328.864 467.461 328.87 468.039 328.121C469.101 326.752 467.448 324.751 466.915 324.18C466.177 323.381 459.143 316.478 459.073 316.407C458.998 316.321 458.958 316.21 458.962 316.096C458.965 315.983 459.011 315.874 459.091 315.793C459.171 315.712 459.278 315.664 459.392 315.658C459.505 315.653 459.617 315.69 459.704 315.764C459.995 316.047 466.824 322.75 467.579 323.569C468.23 324.281 470.245 326.756 468.749 328.682C467.896 329.78 466.779 329.772 465.881 329.762C465.061 329.753 464.543 329.774 464.126 330.237C463.911 330.498 463.716 330.775 463.542 331.065C462.878 332.084 462.077 333.393 459.617 333.778C458.278 333.988 458.025 334.333 457.627 334.853C457.166 335.502 456.552 336.027 455.839 336.381C454.808 336.924 453.624 337.101 452.479 336.884C452.028 336.772 451.554 336.8 451.119 336.964C450.149 337.502 449.096 337.875 448.004 338.068Z" fill="#C98348"/>
<path d="M210.719 695.626C259.319 695.626 298.717 656.228 298.717 607.628C298.717 559.028 259.319 519.63 210.719 519.63C162.119 519.63 122.721 559.028 122.721 607.628C122.721 656.228 162.119 695.626 210.719 695.626Z" fill="url(#paint9_linear_1077_32000)"/>
<path d="M210.716 658.752C238.951 658.752 261.84 635.863 261.84 607.628C261.84 579.393 238.951 556.504 210.716 556.504C182.481 556.504 159.592 579.393 159.592 607.628C159.592 635.863 182.481 658.752 210.716 658.752Z" fill="url(#paint10_linear_1077_32000)"/>
<path d="M215.893 641.823C235.099 638.82 248.235 620.815 245.231 601.608C242.227 582.402 224.222 569.267 205.016 572.27C185.809 575.274 172.674 593.279 175.678 612.486C178.682 631.692 196.686 644.827 215.893 641.823Z" fill="url(#paint11_linear_1077_32000)"/>
<path d="M606.891 672.638C654.908 665.128 687.745 620.116 680.236 572.1C672.727 524.083 627.715 491.246 579.698 498.755C531.682 506.264 498.844 551.276 506.353 599.293C513.862 647.309 558.875 680.147 606.891 672.638Z" fill="url(#paint12_linear_1077_32000)"/>
<path d="M601.192 636.206C629.088 631.844 648.166 605.693 643.803 577.797C639.44 549.901 613.29 530.823 585.394 535.186C557.498 539.549 538.42 565.699 542.783 593.595C547.145 621.491 573.296 640.569 601.192 636.206Z" fill="url(#paint13_linear_1077_32000)"/>
<path d="M598.249 619.989C617.456 616.985 630.591 598.98 627.587 579.774C624.584 560.567 606.579 547.432 587.372 550.436C568.166 553.439 555.031 571.444 558.034 590.651C561.038 609.857 579.043 622.992 598.249 619.989Z" fill="url(#paint14_linear_1077_32000)"/>
<path d="M50.3327 474.295L46.1631 478.984L132.049 555.349L136.219 550.659L50.3327 474.295Z" fill="url(#paint15_linear_1077_32000)"/>
<path d="M22.2339 501.043L156.242 480.086L157.345 487.14L23.3371 508.097C22.8739 508.17 22.401 508.15 21.9454 508.04C21.4898 507.93 21.0603 507.731 20.6816 507.454C20.3029 507.178 19.9823 506.83 19.7381 506.43C19.494 506.029 19.331 505.585 19.2586 505.122C19.1862 504.659 19.2057 504.186 19.316 503.73C19.4263 503.275 19.6253 502.845 19.9016 502.466C20.1779 502.088 20.526 501.767 20.9262 501.523C21.3264 501.279 21.7708 501.116 22.2339 501.043Z" fill="url(#paint16_linear_1077_32000)"/>
<path d="M466.279 356.411C478.984 357.056 487.949 349.695 486.185 333.067C484.422 316.438 476.685 313.077 466.113 314.595L466.279 356.411Z" fill="url(#paint17_linear_1077_32000)"/>
<path d="M550.091 486.21C550.091 486.21 544.672 493.28 537.249 503.304C525.348 519.286 508.274 542.753 499.934 556.662C486.379 579.231 463.663 593.005 444.607 595.985C425.551 598.965 290.25 621.633 283.621 621.161C281.14 620.975 274.882 618.001 268.027 614.344C256.508 608.218 243.27 600.165 243.27 600.165L91.5102 623.898C110.549 541.371 157.469 512.007 158.328 509.444C159.187 506.881 159.584 494.372 159.584 494.372L162.934 489.119L172.235 484.873L335.112 463.927L337.394 478.521C337.909 481.812 336.186 482.082 323.989 492.505C323.33 493.072 322.716 493.687 322.15 494.347L321.822 494.753C312.058 506.84 314.092 534.703 321.513 547.528C329.449 561.229 341.688 568.631 352.604 570.62C363.521 572.609 369.557 570.059 375.204 569.175C380.851 568.292 377.898 571.017 401.585 567.313C425.272 563.608 430.983 564.435 449.898 552.018C471.982 537.529 483.328 497.118 483.776 487.295C483.775 487.28 483.773 487.265 483.769 487.251C484.18 477.486 480.956 462.414 478.658 457.123C476.359 451.833 443.027 390.485 436.211 378.109C429.395 365.733 427.663 357.646 427.663 357.646L423.232 345.568C438.454 325.741 447.718 317.405 451.69 315.313C455.663 313.221 466.453 310.93 468.022 310.684C469.59 310.439 471.943 313.088 473.028 314.918C474.114 316.747 477.673 329.662 476.915 337.648C476.258 344.54 472.188 356.574 470.886 358.52C469.584 360.466 462.122 360.358 461.43 360.467C460.737 360.575 457.194 364.207 457.194 364.207C459.19 370.236 461.937 375.99 465.372 381.333C465.378 381.362 465.383 381.392 465.386 381.421C478.2 401.866 499.712 421.395 510.429 431.992C524.145 445.559 531.087 445.092 536.596 454.904C542.106 464.716 550.091 486.21 550.091 486.21Z" fill="url(#paint18_linear_1077_32000)"/>
<path d="M483.771 487.257C483.789 488.484 484.01 516.132 468.779 541.74C453.699 567.097 418.9 573.882 381.981 579.655C345.063 585.429 326.005 576.34 314.374 552.513C302.872 528.936 310.963 507.742 321.809 494.716C312.046 506.803 314.08 534.666 321.501 547.491C329.437 561.192 341.676 568.594 352.592 570.583C363.509 572.572 369.545 570.022 375.192 569.138C380.839 568.255 377.886 570.98 401.573 567.276C425.26 563.571 430.971 564.398 449.886 551.981C471.97 537.492 483.316 497.081 483.771 487.257Z" fill="url(#paint19_linear_1077_32000)"/>
<path d="M550.092 486.209C550.092 486.209 544.673 493.279 537.249 503.304C525.349 519.286 508.275 542.752 499.935 556.661C486.379 579.23 463.664 593.004 444.608 595.984C425.552 598.964 290.251 621.632 283.622 621.16C281.141 620.975 274.883 618.001 268.028 614.343C310.57 607.056 435.522 585.637 447.582 583.314C462.176 580.503 476.754 574.264 493.137 530.554C509.519 486.844 506.953 469.858 499.405 452.558C489.314 429.417 470.188 427.656 459.392 400.778C449.187 375.362 457.187 364.252 457.187 364.252C459.189 370.266 461.939 376.005 465.373 381.332C465.379 381.361 465.384 381.391 465.386 381.421C478.201 401.865 499.713 421.394 510.43 431.991C524.145 445.558 531.087 445.091 536.597 454.903C542.107 464.715 550.092 486.209 550.092 486.209Z" fill="url(#paint20_linear_1077_32000)"/>
<path d="M550.09 486.209C550.09 486.209 544.671 493.28 537.247 503.304L519.211 503.734C532.538 472.276 517.499 460.568 499.919 435.408C482.892 411.036 466.462 383.153 465.455 381.44C478.27 401.885 499.782 421.414 510.499 432.011C524.214 445.578 531.156 445.111 536.666 454.923C542.176 464.735 550.09 486.209 550.09 486.209Z" fill="url(#paint21_linear_1077_32000)"/>
<path d="M103.661 630.461C103.576 629.916 111.045 573.728 154.421 536.945C205.397 493.724 287.186 502.303 294.371 548.249C301.05 590.955 266.213 605.07 266.213 605.07L103.661 630.461Z" fill="url(#paint22_linear_1077_32000)"/>
<path d="M137.728 452.229C136.816 445.19 142.946 443.87 147.965 443.839C152.984 443.809 178.694 442.865 214.833 439.726C250.971 436.586 309.775 432.18 319.1 430.601C328.426 429.022 337.65 428.296 339.517 440.231C341.384 452.167 340.096 466.119 334.021 467.069L159.583 494.349C158.102 490.237 155.417 486.667 151.878 484.103C146.088 480.023 140.802 475.841 137.728 452.229Z" fill="url(#paint23_linear_1077_32000)"/>
<path d="M372.584 583.872L370.565 570.964C370.209 568.689 371.958 567.088 375.367 566.555L437.401 556.853C440.346 556.393 440.647 557.93 442.322 568.643C442.315 568.644 403.789 587.726 372.584 583.872Z" fill="url(#paint24_linear_1077_32000)"/>
<path d="M223.294 571.321L169.352 579.757C167.832 579.994 166.791 581.419 167.029 582.937C167.266 584.456 168.692 585.495 170.213 585.257L224.154 576.821C225.675 576.583 226.716 575.159 226.478 573.64C226.241 572.121 224.815 571.083 223.294 571.321Z" fill="#4E03AF"/>
<path d="M218.993 581.617L165.051 590.053C163.53 590.291 162.489 591.715 162.727 593.234C162.964 594.753 164.39 595.791 165.911 595.553L219.853 587.117C221.374 586.88 222.414 585.456 222.176 583.937C221.939 582.418 220.513 581.379 218.993 581.617Z" fill="#4E03AF"/>
<path d="M214.689 591.909L160.747 600.344C159.226 600.582 158.186 602.006 158.423 603.525C158.661 605.044 160.086 606.083 161.607 605.845L215.549 597.409C217.07 597.171 218.11 595.747 217.873 594.228C217.635 592.709 216.21 591.671 214.689 591.909Z" fill="#4E03AF"/>
<path d="M483.719 593.901C483.719 593.901 516.33 589.507 562.602 556.406C608.874 523.304 639.139 510.176 655.571 508.904C642.383 471.029 580.079 453.548 535.378 478.459C476.413 511.339 483.719 593.901 483.719 593.901Z" fill="url(#paint25_linear_1077_32000)"/>
<path d="M428.535 356.324C431.877 359.845 438.54 359.957 442.539 355.386C446.539 350.816 444.221 335.655 435.975 334.636C427.73 333.617 423.07 338.6 424.504 346.56C425.937 354.521 428.535 356.324 428.535 356.324Z" fill="url(#paint26_linear_1077_32000)"/>
<path d="M413.028 351.998C413.028 351.998 424.732 343.198 427.194 341.289C432.859 336.948 442.193 348.637 437.129 353.54C432.85 357.678 422.741 365.196 422.741 365.196L413.028 351.998Z" fill="url(#paint27_linear_1077_32000)"/>
<path d="M425.716 357.806C425.284 353.233 421.407 349.858 417.055 350.269C412.703 350.679 409.525 354.719 409.956 359.292C410.388 363.866 414.265 367.24 418.617 366.83C422.969 366.419 426.147 362.379 425.716 357.806Z" fill="url(#paint28_linear_1077_32000)"/>
<path d="M542.343 453.759C541.727 452.113 539.893 451.277 538.247 451.893C536.601 452.509 535.766 454.342 536.381 455.989L545.961 481.599C546.577 483.245 548.41 484.08 550.057 483.465C551.703 482.849 552.538 481.015 551.922 479.369L542.343 453.759Z" fill="url(#paint29_linear_1077_32000)"/>
<path d="M504.087 443.332C506.848 439.664 514.022 447.436 519.968 459.02C525.913 470.604 522.154 477.053 517.452 475.254C512.751 473.455 502.482 445.461 504.087 443.332Z" fill="url(#paint30_linear_1077_32000)"/>
<path d="M478.186 322.868C480.207 322.718 483.844 327.211 483.969 334.908C484.094 342.605 480.642 345.468 479.136 343.795C478.441 343.021 480.066 337.736 479.458 333.124C478.749 327.766 475.979 323.032 478.186 322.868Z" fill="url(#paint31_linear_1077_32000)"/>
<path d="M128.036 372.602L12.7227 390.636L30.3059 503.07L145.619 485.036L128.036 372.602Z" fill="url(#paint32_linear_1077_32000)"/>
<path d="M122.415 350.362L11.2914 367.741C7.98124 368.258 5.71749 371.361 6.23516 374.671L9.0897 392.924C9.60736 396.235 12.7104 398.498 16.0205 397.981L127.144 380.602C130.454 380.085 132.718 376.982 132.2 373.672L129.346 355.418C128.828 352.108 125.725 349.845 122.415 350.362Z" fill="url(#paint33_linear_1077_32000)"/>
<g clip-path="url(#clip0_1077_32000)">
<g clip-path="url(#clip1_1077_32000)">
<mask id="mask1_1077_32000" style="mask-type:luminance" maskUnits="userSpaceOnUse" x="19" y="379" width="119" height="119">
<path d="M119.113 379.824L19.874 398.28L38.3301 497.52L137.569 479.063L119.113 379.824Z" fill="white"/>
</mask>
<g mask="url(#mask1_1077_32000)">
<path d="M46.0695 471.736C25.034 451.012 28.7729 417.744 54.7016 404.591C67.8957 397.997 82.4682 394.194 96.706 389.485C101.534 387.932 104.639 390.811 106.639 395.019C111.074 404.489 115.248 414.294 119.881 423.739C133.967 453.08 118.707 481.982 87.0897 485.801C71.2871 487.68 57.6551 482.57 46.0695 471.736Z" fill="#7000FF"/>
<mask id="mask2_1077_32000" style="mask-type:luminance" maskUnits="userSpaceOnUse" x="49" y="448" width="68" height="27">
<path d="M113.676 448.235L49.542 460.163L52.1158 474.002L116.25 462.075L113.676 448.235Z" fill="white"/>
</mask>
<g mask="url(#mask2_1077_32000)">
<path d="M63.3475 467.053C63.5653 468.225 64.3917 469.272 66.3342 468.91C68.1174 468.579 68.177 467.466 68.177 467.466L71.5154 466.845C71.5154 466.845 71.8426 470.334 66.7781 471.276C63.2462 471.932 60.6591 470.367 60.0011 466.829C59.3453 463.303 61.2025 460.923 64.6889 460.274C68.1449 459.631 70.7223 461.187 71.378 464.713C71.4261 464.987 71.4592 465.264 71.4771 465.541L63.3475 467.053ZM63.0433 465.185L67.9481 464.273C67.7903 463.425 67.0693 462.292 65.1271 462.653C63.2259 463.002 62.8848 464.333 63.0433 465.185Z" fill="white"/>
<path d="M85.1011 467.868L88.14 467.303L87.1758 462.118L92.863 466.425L96.4478 465.758L90.5434 461.236L94.106 455.256L90.5396 455.919L87.0939 461.68L85.5658 453.464L82.5273 454.029L85.1011 467.868Z" fill="white"/>
<path d="M81.8991 460.187L81.4208 457.615L71.5573 459.45L72.0356 462.022L77.8742 460.936L72.8062 467.494L73.2844 470.066L83.7511 468.119L83.2728 465.548L76.8426 466.744L81.8991 460.187Z" fill="white"/>
<path d="M57.6086 470.222C56.6348 470.305 56.102 470.014 55.8275 468.538L55.1355 464.817L58.4321 464.204L57.9765 461.754L54.6799 462.368L54.288 460.26L52.6454 460.566L50.2382 463.914L50.5644 465.668L52.1008 465.382L52.8684 469.51C53.4181 472.466 55.088 473.446 58.1038 472.885L59.9816 472.536L59.4856 469.869L57.6078 470.218L57.6086 470.222Z" fill="white"/>
<path d="M101.823 464.758C105.31 464.11 107.464 461.663 106.81 458.148C106.159 454.644 103.266 453.124 99.7801 453.772C96.3017 454.419 94.1415 456.879 94.793 460.383C95.4426 463.898 98.3449 465.405 101.823 464.758ZM101.337 462.145C99.4788 462.491 98.2184 461.434 97.9149 459.802C97.6128 458.178 98.4128 456.738 100.268 456.393C102.122 456.048 103.398 457.102 103.7 458.726C104 460.359 103.192 461.8 101.337 462.145Z" fill="white"/>
<path d="M112.833 454.446C111.414 454.71 110.659 455.653 110.971 457.33L112.001 462.869L108.951 463.436L107.9 457.787C107.218 454.12 109.998 452.1 112.316 451.669L114.247 451.31L114.763 454.083L112.832 454.442L112.833 454.446Z" fill="white"/>
</g>
<path d="M85.9714 413.402C87.2462 413.444 88.4748 413.454 89.6931 413.535C90.9877 413.62 92.2838 413.774 93.5724 413.889C93.7563 413.908 93.836 413.962 93.8726 414.159C94.5785 417.987 95.3304 421.811 95.9916 425.646C96.7001 429.77 96.0939 433.731 94.2019 437.466C92.093 441.631 88.8832 444.658 84.6208 446.555C82.9452 447.296 81.1693 447.785 79.3506 448.006C75.0167 448.551 70.9372 447.746 67.1682 445.546C63.2832 443.286 60.5066 440.057 58.8384 435.858C58.3757 434.666 58.0293 433.432 57.8042 432.173C57.1247 428.55 56.4573 424.931 55.7721 421.309C55.7271 421.067 55.7902 420.968 55.9968 420.86C58.194 419.681 60.4653 418.645 62.7966 417.759C62.8181 417.749 62.8418 417.75 62.8968 417.734L62.9491 418.015C63.7944 422.56 64.6239 427.115 65.4974 431.656C65.9405 433.945 66.6709 436.151 67.856 438.181C68.7948 439.791 69.9973 441.16 71.5947 442.153C73.064 443.059 74.75 443.552 76.4756 443.582C78.9475 443.651 81.3115 443.171 83.5063 442.001C86.0984 440.624 87.6683 438.437 88.4136 435.63C88.8149 434.132 88.9364 432.597 88.9048 431.051C88.8695 429.331 88.6235 427.633 88.3101 425.948L86.0457 413.772C86.0205 413.666 86.0017 413.565 85.9714 413.402Z" fill="white"/>
<path d="M79.3307 423.357L72.6388 424.601L69.7265 408.942C70.3825 408.593 75.0483 407.708 76.4152 407.681L79.3307 423.357Z" fill="white"/>
</g>
</g>
</g>
<path d="M131.353 366.788L7.78562 386.113C5.89875 386.408 4.60835 388.177 4.90343 390.063L4.90459 390.071C5.19967 391.958 6.96849 393.248 8.85535 392.953L132.422 373.629C134.309 373.334 135.6 371.565 135.305 369.678L135.303 369.671C135.008 367.784 133.24 366.493 131.353 366.788Z" fill="url(#paint34_linear_1077_32000)"/>
<path d="M228.728 708.862C227.033 714.076 294.784 722.134 295.571 709.812C296.358 697.49 231.585 700.023 228.728 708.862Z" fill="url(#paint35_linear_1077_32000)"/>
<path opacity="0.5" d="M228.728 708.862C227.033 714.076 294.784 722.134 295.571 709.812C296.358 697.49 231.585 700.023 228.728 708.862Z" fill="url(#paint36_linear_1077_32000)"/>
<path d="M281.653 737.312C281.653 737.312 269.091 751.371 261.516 750.789C253.94 750.206 238.208 740.237 238.208 740.237C238.208 740.237 239.798 733.76 241.351 725.041C241.649 723.373 241.946 721.629 242.231 719.832C243.213 713.842 243.876 707.805 244.218 701.745C244.218 701.745 268.561 693.823 283.449 705.206C282.742 708.05 282.23 710.94 281.917 713.854C281.475 717.655 281.238 721.477 281.207 725.304C281.154 729.311 281.303 733.319 281.653 737.312Z" fill="#F9CBA2"/>
<path d="M281.889 713.848C266.599 713.473 252.791 716.456 242.233 719.821C243.215 713.831 243.878 707.794 244.22 701.734C244.22 701.734 268.561 693.823 283.449 705.205C282.733 708.047 282.212 710.935 281.889 713.848Z" fill="#E5AD83"/>
<path d="M281.652 737.312C281.652 737.312 269.09 751.371 261.515 750.789C253.94 750.207 238.208 740.237 238.208 740.237C238.208 740.237 239.797 733.76 241.35 725.041C252.229 722.743 269.264 723.49 281.173 725.297C281.131 729.307 281.291 733.317 281.652 737.312Z" fill="url(#paint37_linear_1077_32000)"/>
<path d="M196.328 380.503C196.328 380.503 199.529 402.068 206.248 428.413C209.893 442.704 223.938 484.341 241.592 537.154C256.484 581.703 238.825 621.979 234.65 686.409L292.114 683.657C292.114 683.657 320.218 570.851 300.567 504.2C290.819 471.135 290.321 469.835 281.165 440.625C278.894 433.415 280.381 417.86 280.381 417.86L276.182 372.74L196.328 380.503Z" fill="url(#paint38_linear_1077_32000)"/>
<path d="M231.05 676.352C235.569 671.737 288.814 672.248 297.867 680.204C300.591 682.635 295.062 710.738 295.062 710.738C295.062 710.738 260.693 699.135 228.22 709.789C228.242 709.794 228.722 678.735 231.05 676.352Z" fill="url(#paint39_linear_1077_32000)"/>
<path opacity="0.8" d="M231.05 676.352C235.569 671.737 288.814 672.248 297.867 680.204C300.591 682.635 295.062 710.738 295.062 710.738C295.062 710.738 260.693 699.135 228.22 709.789C228.242 709.794 228.722 678.735 231.05 676.352Z" fill="url(#paint40_linear_1077_32000)"/>
<g opacity="0.25">
<path d="M233.567 707.954L237.231 674.426L241.578 673.747C245.658 646.685 251.979 594.453 252.869 586.476C253.981 576.504 255.255 550.476 250.607 537.842C245.959 525.209 220.681 449.001 217.447 439.71C214.859 432.276 206.692 401.311 202.931 386.758" stroke="#52BEB8" stroke-width="1.75996" stroke-linecap="round"/>
</g>
<path d="M259.782 735.624C265.656 735.397 268.878 732.739 269.86 730.189C270.842 727.639 280.607 711.872 287.844 717.626C292.011 720.948 312.758 739.477 314.597 740.16C316.437 740.843 336.291 744.391 340.582 745.849L336.602 764.089C336.602 764.089 315.927 766.543 307.104 767.369C298.282 768.195 239.223 764.47 239.223 764.47L235.881 754.314C235.881 754.314 235.739 740.412 235.949 736.812C236.202 732.416 240.042 730.652 244.231 732.461C249.301 734.663 255.319 735.795 259.782 735.624Z" fill="url(#paint41_linear_1077_32000)"/>
<path d="M235.863 753.49C235.863 753.49 235.692 764.326 235.821 765.38C235.951 766.434 239.161 772.882 244.054 773.088C248.946 773.295 299.519 782.255 332.356 770.59C334.746 770.7 343.607 765.081 345.336 761.921C347.065 758.761 348.054 751.88 344.115 747.645C338.949 742.114 334.556 746.839 318.865 761.275C312.6 767.04 284.667 765.757 259.245 763.922C253.064 757.593 244.701 753.862 235.863 753.49Z" fill="url(#paint42_linear_1077_32000)"/>
<g opacity="0.25">
<path d="M210.245 414.835C210.082 414.86 209.915 414.838 209.765 414.77C209.615 414.702 209.488 414.592 209.399 414.453C209.311 414.314 209.265 414.152 209.267 413.987C209.269 413.823 209.319 413.662 209.411 413.525C218.144 400.499 221.075 386.979 221.408 381.654C221.415 381.543 221.443 381.434 221.492 381.334C221.541 381.234 221.61 381.145 221.693 381.072C221.776 380.998 221.874 380.942 221.979 380.906C222.084 380.87 222.195 380.855 222.306 380.862C222.417 380.869 222.526 380.898 222.626 380.947C222.726 380.996 222.815 381.064 222.889 381.147C222.962 381.231 223.018 381.328 223.054 381.433C223.09 381.538 223.105 381.65 223.098 381.761C223.057 382.407 221.992 397.811 210.822 414.47C210.756 414.568 210.671 414.651 210.572 414.713C210.472 414.776 210.361 414.818 210.245 414.835Z" fill="#52BEB8"/>
</g>
<path d="M193.53 372.13C193.53 372.13 194.213 380.593 195.557 385.097C195.557 385.097 205.317 389.889 265.103 380.431L316.914 368.041L315.147 356.739L193.53 372.13Z" fill="url(#paint43_linear_1077_32000)"/>
<path d="M362.592 262.924C352.204 259.695 337.149 283.425 326.191 290.186C315.497 296.789 303.189 303.084 286.638 299.175C267.813 294.725 252.24 286.673 240.239 275.825C237.452 273.303 234.834 270.601 232.401 267.737C221.916 255.399 216.431 282.084 210.719 267.736C200.998 243.316 221.548 183.869 296.102 198.979C309.621 202.52 323.435 208.554 332.973 214.401C337.056 216.913 340.405 219.402 342.563 221.632C349.058 228.327 352.209 230.702 362.592 262.924Z" fill="url(#paint44_linear_1077_32000)"/>
<path d="M300.029 259.132C294.334 251.508 297.125 241.136 306.013 238.199C310.516 236.757 315.343 236.239 320.1 235.372C321.724 235.082 322.579 236.161 322.98 237.607C323.91 240.843 324.784 244.141 325.831 247.373C328.924 257.365 322.682 265.873 312.456 265.587C307.312 265.416 303.204 263.108 300.029 259.132Z" fill="url(#paint45_linear_1077_32000)"/>
<mask id="mask3_1077_32000" style="mask-type:luminance" maskUnits="userSpaceOnUse" x="301" y="254" width="23" height="6">
<path d="M322.879 254.714L301.888 255.447L302.046 259.995L323.037 259.262L322.879 254.714Z" fill="white"/>
</mask>
<g mask="url(#mask3_1077_32000)">
<path d="M305.957 258.283C305.971 258.691 306.158 259.035 306.799 259.012C307.383 258.992 307.429 258.64 307.429 258.64L308.537 258.601C308.537 258.601 308.459 259.713 306.826 259.77C305.66 259.811 304.938 259.194 304.897 258.028C304.856 256.862 305.534 256.196 306.7 256.155C307.808 256.116 308.588 256.731 308.629 257.898C308.633 258.014 308.639 258.189 308.639 258.189L305.957 258.283ZM305.995 257.698L307.627 257.641C307.617 257.349 307.428 256.947 306.787 256.969C306.145 256.992 305.985 257.406 305.995 257.698Z" fill="white"/>
<path d="M312.832 259.62L313.824 259.585L313.765 257.894L315.398 259.53L316.564 259.489L314.929 257.795L316.327 256.053L315.161 256.094L313.761 257.777L313.667 255.095L312.676 255.13L312.832 259.62Z" fill="white"/>
<path d="M312.216 257.013L312.187 256.197L308.98 256.309L309.009 257.125L310.933 257.058L309.011 258.876L309.04 259.693L312.48 259.573L312.452 258.756L310.352 258.83L312.216 257.013Z" fill="white"/>
<path d="M303.998 259.052C303.705 259.004 303.526 258.893 303.509 258.427L303.467 257.202L304.516 257.166L304.488 256.349L303.438 256.386L303.414 255.686L302.889 255.705L301.989 256.67L302.009 257.253L302.534 257.235L302.581 258.576C302.615 259.567 303.096 259.959 304.087 259.924L304.728 259.902L304.698 259.028L303.998 259.052Z" fill="white"/>
<path d="M318.315 259.427C319.481 259.387 320.275 258.717 320.234 257.551C320.193 256.384 319.355 255.772 318.189 255.812C317.022 255.853 316.228 256.523 316.269 257.689C316.368 258.853 317.207 259.466 318.315 259.427ZM318.284 258.553C317.701 258.573 317.337 258.177 317.319 257.652C317.3 257.128 317.636 256.707 318.219 256.687C318.802 256.666 319.166 257.062 319.185 257.587C319.261 258.11 318.925 258.53 318.284 258.553Z" fill="white"/>
<mask id="mask4_1077_32000" style="mask-type:luminance" maskUnits="userSpaceOnUse" x="320" y="255" width="4" height="5">
<path d="M323.142 255.64L320.519 255.732L320.643 259.288L323.266 259.197L323.142 255.64Z" fill="white"/>
</mask>
<g mask="url(#mask4_1077_32000)">
<path d="M320.564 257.015L320.646 259.347L321.637 259.312L321.584 257.796C321.564 257.213 322.016 256.789 322.541 256.771L323.182 256.748L323.145 255.699L322.679 255.715C322.096 255.735 321.648 256.276 321.541 256.572L321.537 256.455L321.515 255.814L320.524 255.848L320.564 257.015Z" fill="white"/>
</g>
</g>
<path d="M315.73 242.297C316.142 242.399 316.553 242.443 316.904 242.49C317.317 242.592 317.729 242.694 318.141 242.797C318.199 242.795 318.201 242.853 318.203 242.911C318.246 244.136 318.291 245.418 318.334 246.643C318.38 247.984 317.957 249.225 317.177 250.303C316.285 251.501 315.147 252.358 313.702 252.759C313.123 252.896 312.542 252.975 311.958 252.995C310.557 252.986 309.314 252.504 308.174 251.609C307.033 250.715 306.291 249.515 306.009 248.124C305.936 247.718 305.864 247.311 305.85 246.903C305.809 245.737 305.766 244.513 305.726 243.347C305.724 243.288 305.722 243.23 305.838 243.226C306.588 242.966 307.338 242.707 308.15 242.561C308.15 242.561 308.15 242.561 308.208 242.559C308.21 242.618 308.21 242.618 308.212 242.676C308.265 244.192 308.316 245.65 308.369 247.166C308.396 247.924 308.539 248.678 308.796 249.369C308.992 249.946 309.358 250.4 309.78 250.794C310.202 251.188 310.735 251.403 311.264 251.502C312.028 251.65 312.845 251.622 313.594 251.362C314.459 251.04 315.08 250.434 315.458 249.545C315.675 249.071 315.775 248.6 315.817 248.132C315.915 247.603 315.895 247.02 315.877 246.495C315.83 245.154 315.783 243.813 315.738 242.53C315.734 242.414 315.732 242.355 315.73 242.297Z" fill="white"/>
<path d="M313.143 245.13C312.385 245.157 311.686 245.181 310.928 245.208C310.869 243.517 310.808 241.767 310.749 240.076C310.98 240.01 312.496 239.957 312.964 239.999C313.025 241.748 313.084 243.439 313.143 245.13Z" fill="white"/>
<mask id="mask5_1077_32000" style="mask-type:luminance" maskUnits="userSpaceOnUse" x="226" y="239" width="60" height="135">
<path d="M257.476 239.977L226.018 367.032L253.546 373.848L285.004 246.793L257.476 239.977Z" fill="white"/>
</mask>
<g mask="url(#mask5_1077_32000)">
<path d="M249.96 347.49C252.43 348.102 254.81 347.568 255.771 343.685C256.645 340.156 254.615 339.279 254.615 339.279L256.275 332.573C256.275 332.573 262.806 334.939 260.359 344.821C258.612 351.88 253.681 355.154 246.622 353.406C239.564 351.658 236.73 346.462 238.478 339.404C240.138 332.698 245.156 329.071 252.215 330.819C252.921 330.994 253.98 331.256 253.98 331.256L249.96 347.49ZM246.518 346.264L248.965 336.382C247.2 335.945 244.468 336.392 243.506 340.274C242.545 344.156 244.753 345.827 246.518 346.264Z" fill="white"/>
<path d="M269.714 308.557L271.199 302.557L260.964 300.023L273.558 293.028L275.306 285.969L262.359 292.877L254.309 281.52L252.561 288.578L260.258 299.848L244.024 295.828L242.538 301.828L269.714 308.557Z" fill="white"/>
<path d="M253.046 307.801L248.105 306.578L243.299 325.989L248.24 327.212L251.124 315.565L258.741 330.186L263.682 331.41L268.837 310.587L263.896 309.364L260.751 322.069L253.046 307.801Z" fill="white"/>
<path d="M251.224 360.538C250.434 362.215 249.466 363.099 246.642 362.4L239.231 360.565L240.804 354.212L235.863 352.989L234.29 359.342L230.055 358.293L229.268 361.469L233.517 368.514L237.046 369.388L237.833 366.212L245.95 368.222C251.95 369.707 255.119 367.495 256.605 361.496L257.566 357.613L252.272 356.303L251.224 360.538Z" fill="white"/>
<path d="M277.928 275.382C279.676 268.323 277.017 262.421 269.958 260.673C262.9 258.926 257.794 262.905 256.046 269.964C254.299 277.023 256.957 282.925 264.016 284.672C271.162 286.067 276.268 282.088 277.928 275.382ZM272.634 274.071C271.76 277.6 268.765 279.106 265.589 278.32C262.413 277.533 260.466 274.804 261.34 271.275C262.214 267.746 265.209 266.24 268.385 267.026C271.649 267.46 273.595 270.189 272.634 274.071Z" fill="white"/>
<mask id="mask6_1077_32000" style="mask-type:luminance" maskUnits="userSpaceOnUse" x="259" y="239" width="26" height="23">
<path d="M263.471 239.966L259.539 255.847L281.068 261.178L285 245.296L263.471 239.966Z" fill="white"/>
</mask>
<g mask="url(#mask6_1077_32000)">
<path d="M267.304 257.769L281.421 261.264L282.907 255.264L273.731 252.992C270.201 252.119 268.43 248.683 269.216 245.507L270.178 241.625L263.825 240.052L263.126 242.875C262.252 246.405 264.729 250.015 266.319 251.157L265.613 250.983L261.731 250.021L260.246 256.021L267.304 257.769Z" fill="white"/>
</g>
</g>
<path d="M320.146 209.751C323.579 221.43 304.871 233.32 291.323 239.363C277.775 245.405 253.23 207.728 258.608 199.53C271.706 179.554 313.537 187.223 320.146 209.751Z" fill="url(#paint46_linear_1077_32000)"/>
<path d="M311.826 211C314.323 219.494 300.718 228.141 290.864 232.536C281.011 236.93 263.16 209.529 267.072 203.567C276.598 189.039 307.02 194.616 311.826 211Z" fill="#F9CBA2"/>
<path d="M276.614 179.227L268.002 208.852C267.889 209.24 272.519 210.716 276.819 219.984C281.327 222.505 286.145 224.424 291.151 225.692C295.004 225.423 298.079 224.131 301.794 223.076L305.66 219.225L309.143 209.263L309.296 208.739L311.66 199.316L311.916 198.298L314.325 197.548C317.708 195.689 318.84 193.743 322.583 189.145C328.573 181.788 331.439 177.503 334.422 167.566C336.379 161.051 335.579 154.583 337.214 145.058C327.371 101.043 279.099 128.8 278.636 129.297C278.173 129.793 276.614 179.227 276.614 179.227Z" fill="#F9CBA2"/>
<path d="M308.709 184.774C303.4 182.424 300.783 174.887 301.724 171.18L311.893 177.465L321.465 182.714C320.139 185.229 314.017 187.125 308.709 184.774Z" fill="white"/>
<path d="M313.649 170.975C315.907 172.987 320.262 174.079 322.396 171.091C324.101 168.705 322.89 162.886 321.897 158.141C321.464 156.074 322.163 153.954 323.701 152.507V152.507" stroke="#C98348" stroke-width="1.45539" stroke-linecap="round"/>
<path d="M282.868 181.012C282.868 181.012 283.515 207.011 309.156 209.279L311.9 198.334C311.9 198.334 295.903 200.723 282.868 181.012Z" fill="#E5AD83"/>
<path d="M304.153 147.991C304.245 147.989 304.334 147.965 304.416 147.92C304.498 147.875 304.57 147.81 304.627 147.731C306.352 145.317 313.347 142.051 319.112 142.665C319.194 142.674 319.277 142.665 319.356 142.638C319.435 142.611 319.508 142.567 319.571 142.508C319.699 142.389 319.78 142.218 319.795 142.033C319.81 141.847 319.759 141.662 319.652 141.518C319.545 141.375 319.392 141.284 319.227 141.266C312.753 140.577 305.556 144.168 303.653 146.846C303.579 146.949 303.533 147.074 303.52 147.206C303.508 147.338 303.529 147.471 303.581 147.59C303.634 147.71 303.715 147.81 303.817 147.879C303.918 147.948 304.035 147.984 304.153 147.982L304.153 147.991Z" fill="#654B1E"/>
<path d="M327.189 144.041C327.228 144.124 327.287 144.195 327.362 144.251C327.437 144.307 327.525 144.346 327.622 144.365C330.532 144.938 336.397 149.959 338.22 155.462C338.246 155.541 338.289 155.612 338.346 155.673C338.403 155.733 338.474 155.782 338.553 155.815C338.714 155.883 338.903 155.885 339.078 155.822C339.254 155.759 339.401 155.636 339.488 155.48C339.575 155.323 339.594 155.146 339.542 154.988C337.494 148.808 331.25 143.738 328.025 143.112C327.9 143.088 327.767 143.097 327.642 143.14C327.517 143.183 327.404 143.258 327.317 143.355C327.23 143.452 327.173 143.568 327.152 143.688C327.13 143.809 327.146 143.93 327.197 144.037L327.189 144.041Z" fill="#654B1E"/>
<path d="M307.143 153.661C307.494 152.009 308.678 150.861 309.787 151.097C310.896 151.333 311.51 152.863 311.159 154.515C310.808 156.167 309.624 157.315 308.515 157.079C307.406 156.843 306.792 155.313 307.143 153.661Z" fill="#654B1E"/>
<path d="M308.893 152.863C308.984 152.89 309.082 152.893 309.175 152.871C310.72 152.471 312.218 151.907 313.644 151.191C313.772 151.123 313.868 151.007 313.911 150.869C313.954 150.73 313.94 150.581 313.873 150.452C313.805 150.324 313.689 150.228 313.551 150.185C313.413 150.142 313.263 150.156 313.134 150.224C311.783 150.897 310.365 151.428 308.904 151.809C308.786 151.836 308.681 151.903 308.605 151.997C308.529 152.091 308.486 152.207 308.484 152.328C308.481 152.449 308.519 152.567 308.59 152.664C308.662 152.762 308.764 152.832 308.881 152.865L308.893 152.863Z" fill="#654B1E"/>
<path d="M329.562 156.678C329.654 156.705 329.751 156.708 329.844 156.686C331.283 156.315 332.677 155.792 334.005 155.126C334.133 155.058 334.23 154.943 334.272 154.804C334.315 154.666 334.301 154.516 334.234 154.388C334.166 154.26 334.051 154.164 333.912 154.121C333.774 154.078 333.624 154.092 333.496 154.159C332.246 154.78 330.936 155.27 329.585 155.621C329.467 155.649 329.362 155.715 329.286 155.809C329.21 155.903 329.168 156.02 329.165 156.14C329.162 156.261 329.2 156.38 329.272 156.477C329.344 156.574 329.446 156.645 329.562 156.678Z" fill="#654B1E"/>
<path d="M327.953 157.391C328.278 155.86 329.374 154.795 330.401 155.014C331.427 155.232 331.996 156.65 331.67 158.181C331.345 159.712 330.249 160.776 329.222 160.558C328.196 160.34 327.627 158.922 327.953 157.391Z" fill="#654B1E"/>
<g clip-path="url(#clip2_1077_32000)">
<path d="M300.112 126.028C300.41 135.183 297.598 144.647 287.706 149.945C287.706 149.945 284.82 131.239 284.992 131.186C285.164 131.133 300.112 126.028 300.112 126.028Z" fill="url(#paint47_linear_1077_32000)"/>
<path d="M292.7 133.445C291.134 144.713 288.287 157.184 276.405 162.637L275.598 163.022C275.598 163.022 272.331 139.317 272.569 139.286C272.806 139.256 292.7 133.445 292.7 133.445Z" fill="url(#paint48_linear_1077_32000)"/>
<path d="M271.668 140.262C272.808 140.592 272.289 140.245 272.969 140.035C284.964 136.337 297.479 132.985 312.866 127.954C329.305 122.578 341.458 130.196 349.855 141.512L349.837 141.22C346.17 107.413 329.633 102.636 313.095 97.8589C282.21 101.912 274.772 110.267 271.668 140.262Z" fill="url(#paint49_linear_1077_32000)"/>
<mask id="mask7_1077_32000" style="mask-type:alpha" maskUnits="userSpaceOnUse" x="274" y="97" width="77" height="45">
<path d="M275.103 136.929C287.723 132.973 297.747 133.6 314.007 128.284C330.446 122.908 342.599 130.525 350.996 141.842L350.978 141.55C347.312 107.742 329.634 102.636 313.096 97.8588C282.211 101.912 272.656 109.038 275.103 136.929Z" fill="url(#paint50_linear_1077_32000)"/>
</mask>
<g mask="url(#mask7_1077_32000)">
<mask id="mask8_1077_32000" style="mask-type:luminance" maskUnits="userSpaceOnUse" x="301" y="111" width="46" height="14">
<path d="M346.388 115.02L301.805 111.796L301.106 121.456L345.69 124.68L346.388 115.02Z" fill="white"/>
</mask>
<g mask="url(#mask8_1077_32000)">
<path d="M309.77 118.721C309.707 119.588 310.025 120.358 311.387 120.457C312.626 120.546 312.804 119.812 312.804 119.812L315.156 119.982C315.156 119.982 314.739 122.317 311.271 122.067C308.794 121.887 307.407 120.418 307.586 117.941C307.765 115.464 309.349 114.209 311.826 114.388C314.179 114.558 315.691 116.037 315.512 118.514C315.494 118.762 315.467 119.133 315.467 119.133L309.77 118.721ZM309.983 117.492L313.451 117.742C313.496 117.123 313.187 116.229 311.825 116.131C310.462 116.032 310.028 116.873 309.983 117.492Z" fill="white"/>
<path d="M324.018 123.113L326.123 123.265L326.383 119.674L329.467 123.507L331.943 123.686L328.868 119.729L332.224 116.361L329.747 116.182L326.4 119.426L326.812 113.729L324.707 113.577L324.018 123.113Z" fill="white"/>
<path d="M323.307 117.459L323.432 115.725L316.621 115.233L316.496 116.967L320.582 117.262L316.103 120.673L315.978 122.407L323.284 122.935L323.41 121.201L318.951 120.879L323.307 117.459Z" fill="white"/>
<path d="M305.451 119.903C304.841 119.734 304.487 119.46 304.559 118.469L304.747 115.868L306.976 116.03L307.102 114.296L304.872 114.135L304.98 112.649L303.865 112.568L301.741 114.406L301.651 115.645L302.766 115.725L302.56 118.574C302.407 120.679 303.335 121.618 305.441 121.77L306.803 121.868L306.937 120.011L305.451 119.903Z" fill="white"/>
<path d="M335.658 123.955C338.135 124.134 339.968 122.897 340.147 120.42C340.326 117.943 338.69 116.455 336.214 116.276C333.737 116.097 331.904 117.334 331.725 119.811C331.67 122.297 333.305 123.784 335.658 123.955ZM335.793 122.097C334.554 122.007 333.874 121.087 333.955 119.972C334.035 118.858 334.841 118.044 336.079 118.134C337.318 118.223 337.998 119.144 337.918 120.259C337.961 121.382 337.155 122.195 335.793 122.097Z" fill="white"/>
<mask id="mask9_1077_32000" style="mask-type:luminance" maskUnits="userSpaceOnUse" x="340" y="116" width="7" height="9">
<path d="M346.742 117.038L341.169 116.635L340.623 124.189L346.196 124.592L346.742 117.038Z" fill="white"/>
</mask>
<g mask="url(#mask9_1077_32000)">
<path d="M340.972 119.359L340.614 124.313L342.719 124.465L342.952 121.245C343.042 120.007 344.095 119.211 345.21 119.292L346.572 119.39L346.733 117.161L345.742 117.09C344.504 117 343.433 118.043 343.14 118.644L343.158 118.397L343.257 117.034L341.151 116.882L340.972 119.359Z" fill="white"/>
</g>
</g>
</g>
<path d="M284.775 136.016C296.268 135.962 305.064 134.582 319.839 134.406C334.777 134.226 333.987 137.017 343.702 143.77L355.442 148.387C358.086 149.427 360.666 147.178 359.256 144.712C357.103 140.947 353.641 137.638 349.347 134.897C337.865 127.571 329.022 125.646 314.72 128.602C305.406 130.526 295.876 131.809 284.775 136.016Z" fill="url(#paint51_linear_1077_32000)"/>
<path d="M284.48 136.549C285.232 130.382 289.19 116.868 292.704 112.357C298.596 104.792 307.087 101.066 312.802 98.3917" stroke="#640DD3" stroke-width="1.21698" stroke-linecap="round"/>
<path d="M311.943 127.128C321.909 130.344 327.283 136.845 328.315 144.314C328.315 144.314 332.309 143.388 332.759 137.089C334.257 142.464 342.345 150.653 346.911 149.149C352.038 147.45 341.796 126.972 311.943 127.128Z" fill="url(#paint52_linear_1077_32000)"/>
<path d="M283.47 136.257C294.963 136.202 309.346 142.022 323.337 137.269C345.944 129.589 360.099 140.474 359.263 147.647C364.75 139.346 336.832 122.633 314.162 124.116C304.849 126.04 294.735 131.479 283.47 136.257Z" fill="url(#paint53_linear_1077_32000)"/>
<path d="M275.988 154.449C276.804 158.632 279.813 161.564 282.709 160.999C285.605 160.434 287.29 156.585 286.474 152.402C285.658 148.22 283.515 142.046 280.62 142.611C277.724 143.176 275.171 150.266 275.988 154.449Z" fill="#F9CBA2"/>
</g>
<path d="M273.729 276.485C269.678 293.475 248.212 314.358 234.48 318.994C213.377 303.445 213.572 274.763 212.722 258.119C211.938 242.791 219.126 230.596 228.067 224.91C252.079 213.397 261.913 260.628 273.729 276.485Z" fill="#4E03AF"/>
<path d="M300.901 362.511C310.532 366.153 367.441 369.663 385.982 360.353C393.515 356.57 399.865 339.084 385.982 336.259C376.424 334.326 350.04 336.338 342.414 335.582C339.239 335.262 314.649 329.132 314.649 329.132C302.175 316.856 274.527 287.563 263.722 268.589C250.215 244.871 255.026 227.611 238.425 223.972C221.824 220.334 208.514 249.135 215.119 268.588C221.724 288.041 235.254 308.668 243.704 317.144C250.464 323.924 275.396 345.143 287.017 354.904L290.275 357.22C293.527 360.808 300.901 362.511 300.901 362.511Z" fill="#ECB88E"/>
<mask id="mask10_1077_32000" style="mask-type:alpha" maskUnits="userSpaceOnUse" x="213" y="223" width="182" height="144">
<path d="M300.901 362.511C310.532 366.153 367.441 369.663 385.982 360.353C393.515 356.57 399.865 339.084 385.982 336.259C376.424 334.326 350.04 336.338 342.414 335.582C339.239 335.262 314.649 329.131 314.649 329.131C302.175 316.856 274.527 287.562 263.722 268.589C250.215 244.871 255.026 227.611 238.425 223.972C221.824 220.333 208.514 249.135 215.119 268.588C221.724 288.04 235.254 308.668 243.704 317.144C250.464 323.924 275.396 345.142 287.017 354.904L290.275 357.22C293.527 360.808 300.901 362.511 300.901 362.511Z" fill="#ECB88E"/>
</mask>
<g mask="url(#mask10_1077_32000)">
<path d="M227.625 307.072C238.984 317.418 243.968 321.936 253.297 329.732C251.487 312.84 265.759 291.972 275.971 281.744L257.284 266.916C252.987 272.639 227.625 307.072 227.625 307.072Z" fill="#E5AD83"/>
</g>
<path d="M430.441 363.435C428.753 365.608 426.201 363.647 424.701 365.35C423.504 366.68 423.089 369.03 419.408 369.606C416.112 370.121 417.266 371.472 414.515 372.919C411.765 374.366 410.049 372.858 408.596 373.65C406.363 374.862 402.773 376.092 400.302 373.731C398.609 372.116 394.177 366.827 389.838 363.814C388.042 362.564 386.263 361.705 384.7 361.653C384.535 361.644 384.37 361.647 384.205 361.662C381.63 361.941 379.041 362.075 376.451 362.063C372.858 361.916 370.272 360.875 367.794 357.56C363.606 351.931 366.067 338.736 373.803 336.212C374.524 335.984 375.259 335.801 376.002 335.663C381.583 334.596 391.458 334.388 398.581 334.417C400.04 334.429 401.386 334.452 402.556 334.475C403.932 334.506 405.063 334.546 405.857 334.582C411.999 334.872 420.676 340.486 424.397 344.737L419.202 348.047C419.202 348.047 428.076 356.749 429.019 357.778C429.963 358.808 431.988 361.451 430.441 363.435Z" fill="#ECB88E"/>
<path d="M404.968 375.55C404.074 375.736 403.149 375.705 402.27 375.459C401.39 375.214 400.583 374.762 399.914 374.14C399.814 374.035 399.758 373.895 399.758 373.75C399.758 373.604 399.815 373.465 399.916 373.36C400.016 373.255 400.154 373.193 400.299 373.187C400.444 373.181 400.586 373.231 400.695 373.327C403.005 375.531 406.471 374.166 408.331 373.161C409.078 372.826 409.915 372.745 410.712 372.931C411.916 373.171 413.166 372.994 414.256 372.429C415 372.063 415.64 371.515 416.115 370.835C416.684 370.089 417.22 369.388 419.322 369.06C421.871 368.661 422.673 367.393 423.443 366.181C423.69 365.77 423.969 365.379 424.277 365.011C425.15 364.017 426.3 364.026 427.319 364.038C428.337 364.05 429.276 364.058 429.998 363.122C431.324 361.412 429.259 358.913 428.594 358.2C427.672 357.201 418.884 348.577 418.796 348.488C418.703 348.381 418.653 348.242 418.657 348.1C418.662 347.958 418.719 347.823 418.819 347.721C418.918 347.62 419.053 347.56 419.195 347.553C419.337 347.546 419.476 347.593 419.585 347.685C419.949 348.039 428.48 356.412 429.423 357.436C430.236 358.326 432.754 361.417 430.884 363.823C429.819 365.196 428.424 365.185 427.302 365.172C426.277 365.161 425.63 365.188 425.109 365.766C424.84 366.092 424.597 366.438 424.38 366.8C423.55 368.073 422.549 369.709 419.476 370.19C417.803 370.451 417.488 370.883 416.989 371.533C416.414 372.344 415.647 373 414.757 373.442C413.469 374.12 411.989 374.341 410.559 374.07C409.995 373.93 409.403 373.965 408.86 374.17C407.648 374.842 406.333 375.308 404.968 375.55Z" fill="#C98348"/>
<path d="M273.729 276.485C259.084 284.05 239.906 305.687 234.827 319.23C213.724 303.681 208.081 278.515 208.081 257.395C208.08 238.916 219.127 230.596 228.067 224.91C252.079 213.397 261.913 260.628 273.729 276.485Z" fill="url(#paint54_linear_1077_32000)"/>
<defs>
<linearGradient id="paint0_linear_1077_32000" x1="299.32" y1="557.989" x2="494.103" y2="-38.6583" gradientUnits="userSpaceOnUse">
<stop stop-color="#D5E6EC"/>
<stop offset="1" stop-color="#DFECF0"/>
</linearGradient>
<linearGradient id="paint1_linear_1077_32000" x1="422.137" y1="509.857" x2="444.578" y2="527.585" gradientUnits="userSpaceOnUse">
<stop stop-color="#BFDDE0"/>
<stop offset="1" stop-color="#C0E0E3"/>
</linearGradient>
<linearGradient id="paint2_linear_1077_32000" x1="257.425" y1="301.664" x2="396.02" y2="444.635" gradientUnits="userSpaceOnUse">
<stop stop-color="#11215A"/>
<stop offset="1" stop-color="#071843"/>
</linearGradient>
<linearGradient id="paint3_linear_1077_32000" x1="462.904" y1="500.017" x2="434.247" y2="482.45" gradientUnits="userSpaceOnUse">
<stop stop-color="white"/>
<stop offset="1" stop-color="#DDF1F3"/>
</linearGradient>
<linearGradient id="paint4_linear_1077_32000" x1="394.646" y1="443.14" x2="437.911" y2="487.771" gradientUnits="userSpaceOnUse">
<stop stop-color="#11215A"/>
<stop offset="1" stop-color="#071843"/>
</linearGradient>
<linearGradient id="paint5_linear_1077_32000" x1="391.468" y1="504.241" x2="479.969" y2="546.549" gradientUnits="userSpaceOnUse">
<stop stop-color="#AA67FF"/>
<stop offset="1" stop-color="#7000FF"/>
</linearGradient>
<linearGradient id="paint6_linear_1077_32000" x1="427.825" y1="521.625" x2="511.597" y2="561.673" gradientUnits="userSpaceOnUse">
<stop stop-color="#148DB3"/>
<stop offset="1" stop-color="#00C2FF"/>
</linearGradient>
<linearGradient id="paint7_linear_1077_32000" x1="338.867" y1="275.51" x2="205.941" y2="386.428" gradientUnits="userSpaceOnUse">
<stop stop-color="#7000FF"/>
<stop offset="1" stop-color="#8E36FF"/>
</linearGradient>
<linearGradient id="paint8_linear_1077_32000" x1="383.508" y1="282.995" x2="417.89" y2="366.733" gradientUnits="userSpaceOnUse">
<stop stop-color="#F9CBA2"/>
<stop offset="1" stop-color="#E5AD83"/>
</linearGradient>
<linearGradient id="paint9_linear_1077_32000" x1="192.319" y1="551.27" x2="241.934" y2="703.284" gradientUnits="userSpaceOnUse">
<stop offset="0.04" stop-color="#654B1E"/>
<stop offset="1" stop-color="#2E1D12"/>
</linearGradient>
<linearGradient id="paint10_linear_1077_32000" x1="220.873" y1="582.495" x2="197.164" y2="641.183" gradientUnits="userSpaceOnUse">
<stop stop-color="#E8E8EB"/>
<stop offset="1" stop-color="#D3D3D3"/>
</linearGradient>
<linearGradient id="paint11_linear_1077_32000" x1="201.567" y1="550.21" x2="212.122" y2="617.701" gradientUnits="userSpaceOnUse">
<stop stop-color="#AA67FF"/>
<stop offset="1" stop-color="#7000FF"/>
</linearGradient>
<linearGradient id="paint12_linear_1077_32000" x1="566.418" y1="532.856" x2="638.925" y2="675.379" gradientUnits="userSpaceOnUse">
<stop offset="0.04" stop-color="#654B1E"/>
<stop offset="1" stop-color="#2E1D12"/>
</linearGradient>
<linearGradient id="paint13_linear_1077_32000" x1="599.445" y1="559.296" x2="585.088" y2="620.942" gradientUnits="userSpaceOnUse">
<stop stop-color="#E8E8EB"/>
<stop offset="1" stop-color="#D3D3D3"/>
</linearGradient>
<linearGradient id="paint14_linear_1077_32000" x1="583.924" y1="528.376" x2="594.478" y2="595.867" gradientUnits="userSpaceOnUse">
<stop stop-color="#AA67FF"/>
<stop offset="1" stop-color="#7000FF"/>
</linearGradient>
<linearGradient id="paint15_linear_1077_32000" x1="107.112" y1="529.95" x2="119.815" y2="509.737" gradientUnits="userSpaceOnUse">
<stop stop-color="#B7C5CA"/>
<stop offset="1" stop-color="#9DB4BB"/>
</linearGradient>
<linearGradient id="paint16_linear_1077_32000" x1="72.3195" y1="498.204" x2="71.0795" y2="489.301" gradientUnits="userSpaceOnUse">
<stop stop-color="#B7C5CA"/>
<stop offset="1" stop-color="#9DB4BB"/>
</linearGradient>
<linearGradient id="paint17_linear_1077_32000" x1="476.482" y1="327.984" x2="467.014" y2="350.593" gradientUnits="userSpaceOnUse">
<stop stop-color="#E8E8EB"/>
<stop offset="1" stop-color="#D3D3D3"/>
</linearGradient>
<linearGradient id="paint18_linear_1077_32000" x1="472.626" y1="406.798" x2="414.513" y2="701.048" gradientUnits="userSpaceOnUse">
<stop stop-color="#7000FF"/>
<stop offset="1" stop-color="#8E36FF"/>
</linearGradient>
<linearGradient id="paint19_linear_1077_32000" x1="387.572" y1="454.507" x2="401.548" y2="543.874" gradientUnits="userSpaceOnUse">
<stop stop-color="#AA67FF"/>
<stop offset="1" stop-color="#7000FF"/>
</linearGradient>
<linearGradient id="paint20_linear_1077_32000" x1="370.66" y1="304.698" x2="404.794" y2="522.963" gradientUnits="userSpaceOnUse">
<stop stop-color="#AA67FF"/>
<stop offset="1" stop-color="#7000FF"/>
</linearGradient>
<linearGradient id="paint21_linear_1077_32000" x1="492.323" y1="335.027" x2="512.037" y2="461.089" gradientUnits="userSpaceOnUse">
<stop stop-color="#AA67FF"/>
<stop offset="1" stop-color="#7000FF"/>
</linearGradient>
<linearGradient id="paint22_linear_1077_32000" x1="265.108" y1="537.478" x2="248.509" y2="647.514" gradientUnits="userSpaceOnUse">
<stop stop-color="#7000FF"/>
<stop offset="1" stop-color="#8E36FF"/>
</linearGradient>
<linearGradient id="paint23_linear_1077_32000" x1="235.463" y1="432.584" x2="245.86" y2="480.932" gradientUnits="userSpaceOnUse">
<stop offset="0.04" stop-color="#654B1E"/>
<stop offset="1" stop-color="#2E1D12"/>
</linearGradient>
<linearGradient id="paint24_linear_1077_32000" x1="402.897" y1="562.725" x2="411.112" y2="582.365" gradientUnits="userSpaceOnUse">
<stop offset="0.04" stop-color="#654B1E"/>
<stop offset="1" stop-color="#2E1D12"/>
</linearGradient>
<linearGradient id="paint25_linear_1077_32000" x1="645.286" y1="494.405" x2="624.258" y2="613.462" gradientUnits="userSpaceOnUse">
<stop stop-color="#7000FF"/>
<stop offset="1" stop-color="#8D33FF"/>
</linearGradient>
<linearGradient id="paint26_linear_1077_32000" x1="436.054" y1="338.953" x2="433.119" y2="351.821" gradientUnits="userSpaceOnUse">
<stop stop-color="#E8E8EB"/>
<stop offset="1" stop-color="#D3D3D3"/>
</linearGradient>
<linearGradient id="paint27_linear_1077_32000" x1="422.969" y1="345.382" x2="431.677" y2="358.714" gradientUnits="userSpaceOnUse">
<stop offset="0.04" stop-color="#654B1E"/>
<stop offset="1" stop-color="#2E1D12"/>
</linearGradient>
<linearGradient id="paint28_linear_1077_32000" x1="410.364" y1="370.218" x2="422.534" y2="351.184" gradientUnits="userSpaceOnUse">
<stop offset="0.04" stop-color="#654B1E"/>
<stop offset="1" stop-color="#2E1D12"/>
</linearGradient>
<linearGradient id="paint29_linear_1077_32000" x1="547.945" y1="458.236" x2="543.854" y2="477.714" gradientUnits="userSpaceOnUse">
<stop offset="0.04" stop-color="#654B1E"/>
<stop offset="1" stop-color="#2E1D12"/>
</linearGradient>
<linearGradient id="paint30_linear_1077_32000" x1="514.341" y1="452.445" x2="510.652" y2="472.372" gradientUnits="userSpaceOnUse">
<stop stop-color="#E8E8EB"/>
<stop offset="1" stop-color="#D3D3D3"/>
</linearGradient>
<linearGradient id="paint31_linear_1077_32000" x1="489.304" y1="314.469" x2="475.321" y2="342.023" gradientUnits="userSpaceOnUse">
<stop stop-color="white"/>
<stop offset="1" stop-color="#DDF1F3"/>
</linearGradient>
<linearGradient id="paint32_linear_1077_32000" x1="69.1837" y1="461.398" x2="90.0003" y2="326.441" gradientUnits="userSpaceOnUse">
<stop stop-color="#00C2FF"/>
<stop offset="1" stop-color="#009ECF"/>
</linearGradient>
<linearGradient id="paint33_linear_1077_32000" x1="55.8731" y1="382.176" x2="52.9901" y2="343.864" gradientUnits="userSpaceOnUse">
<stop stop-color="#00A4D8"/>
<stop offset="1" stop-color="#007AA0"/>
</linearGradient>
<linearGradient id="paint34_linear_1077_32000" x1="129.489" y1="369.484" x2="130.482" y2="377.344" gradientUnits="userSpaceOnUse">
<stop stop-color="#7000FF"/>
<stop offset="1" stop-color="#8D33FF"/>
</linearGradient>
<linearGradient id="paint35_linear_1077_32000" x1="267.645" y1="782.369" x2="263.855" y2="732.268" gradientUnits="userSpaceOnUse">
<stop stop-color="white"/>
<stop offset="1" stop-color="#DDF1F3"/>
</linearGradient>
<linearGradient id="paint36_linear_1077_32000" x1="266.665" y1="691.488" x2="261.677" y2="711.329" gradientUnits="userSpaceOnUse">
<stop stop-color="#11215A"/>
<stop offset="1" stop-color="#071843"/>
</linearGradient>
<linearGradient id="paint37_linear_1077_32000" x1="261.941" y1="725.076" x2="256.884" y2="743.809" gradientUnits="userSpaceOnUse">
<stop stop-color="#BFDDE0"/>
<stop offset="1" stop-color="#C0E0E3"/>
</linearGradient>
<linearGradient id="paint38_linear_1077_32000" x1="218.316" y1="276.164" x2="265.44" y2="577.495" gradientUnits="userSpaceOnUse">
<stop stop-color="#11215A"/>
<stop offset="1" stop-color="#071843"/>
</linearGradient>
<linearGradient id="paint39_linear_1077_32000" x1="325.569" y1="708.024" x2="258.123" y2="693.058" gradientUnits="userSpaceOnUse">
<stop stop-color="white"/>
<stop offset="1" stop-color="#DDF1F3"/>
</linearGradient>
<linearGradient id="paint40_linear_1077_32000" x1="272.13" y1="656.934" x2="260.999" y2="701.206" gradientUnits="userSpaceOnUse">
<stop stop-color="#11215A"/>
<stop offset="1" stop-color="#071843"/>
</linearGradient>
<linearGradient id="paint41_linear_1077_32000" x1="287.457" y1="700.015" x2="288.23" y2="749.898" gradientUnits="userSpaceOnUse">
<stop stop-color="#AA67FF"/>
<stop offset="1" stop-color="#7000FF"/>
</linearGradient>
<linearGradient id="paint42_linear_1077_32000" x1="278.564" y1="767.364" x2="281.367" y2="729.321" gradientUnits="userSpaceOnUse">
<stop stop-color="#00C2FF"/>
<stop offset="1" stop-color="#009ECF"/>
</linearGradient>
<linearGradient id="paint43_linear_1077_32000" x1="310.359" y1="360.547" x2="311.837" y2="382.462" gradientUnits="userSpaceOnUse">
<stop stop-color="#7000FF"/>
<stop offset="1" stop-color="#8D33FF"/>
</linearGradient>
<linearGradient id="paint44_linear_1077_32000" x1="304.192" y1="168.277" x2="284.028" y2="263.182" gradientUnits="userSpaceOnUse">
<stop stop-color="#AA67FF"/>
<stop offset="1" stop-color="#7000FF"/>
</linearGradient>
<linearGradient id="paint45_linear_1077_32000" x1="308.606" y1="256.482" x2="318.71" y2="222.087" gradientUnits="userSpaceOnUse">
<stop stop-color="#00C2FF"/>
<stop offset="1" stop-color="#009ECF"/>
</linearGradient>
<linearGradient id="paint46_linear_1077_32000" x1="294.26" y1="189.149" x2="280.92" y2="238.404" gradientUnits="userSpaceOnUse">
<stop stop-color="#148DB3"/>
<stop offset="1" stop-color="#00C2FF"/>
</linearGradient>
<linearGradient id="paint47_linear_1077_32000" x1="292.632" y1="124.002" x2="292.367" y2="144.874" gradientUnits="userSpaceOnUse">
<stop offset="0.04" stop-color="#654B1E"/>
<stop offset="1" stop-color="#2E1D12"/>
</linearGradient>
<linearGradient id="paint48_linear_1077_32000" x1="283.343" y1="129.092" x2="278.272" y2="156.425" gradientUnits="userSpaceOnUse">
<stop offset="0.04" stop-color="#654B1E"/>
<stop offset="1" stop-color="#2E1D12"/>
</linearGradient>
<linearGradient id="paint49_linear_1077_32000" x1="326.093" y1="84.369" x2="312.027" y2="133.064" gradientUnits="userSpaceOnUse">
<stop stop-color="#AA67FF"/>
<stop offset="1" stop-color="#7000FF"/>
</linearGradient>
<linearGradient id="paint50_linear_1077_32000" x1="326.28" y1="85.7943" x2="313.333" y2="130.616" gradientUnits="userSpaceOnUse">
<stop stop-color="#AA67FF"/>
<stop offset="1" stop-color="#7000FF"/>
</linearGradient>
<linearGradient id="paint51_linear_1077_32000" x1="327.959" y1="126.615" x2="322.127" y2="146.805" gradientUnits="userSpaceOnUse">
<stop stop-color="#400E7E"/>
<stop offset="1" stop-color="#780EFF"/>
</linearGradient>
<linearGradient id="paint52_linear_1077_32000" x1="332.685" y1="128.635" x2="328.028" y2="143.961" gradientUnits="userSpaceOnUse">
<stop offset="0.04" stop-color="#654B1E"/>
<stop offset="1" stop-color="#2E1D12"/>
</linearGradient>
<linearGradient id="paint53_linear_1077_32000" x1="328.547" y1="117.442" x2="322.294" y2="139.089" gradientUnits="userSpaceOnUse">
<stop stop-color="#AA67FF"/>
<stop offset="1" stop-color="#7000FF"/>
</linearGradient>
<linearGradient id="paint54_linear_1077_32000" x1="243.848" y1="229.933" x2="292.308" y2="286.218" gradientUnits="userSpaceOnUse">
<stop stop-color="#7000FF"/>
<stop offset="1" stop-color="#8D33FF"/>
</linearGradient>
<clipPath id="clip0_1077_32000">
<rect x="19.874" y="398.28" width="100.941" height="100.941" rx="19.5626" transform="rotate(-10.5353 19.874 398.28)" fill="white"/>
</clipPath>
<clipPath id="clip1_1077_32000">
<rect width="100.941" height="100.941" fill="white" transform="translate(19.874 398.28) rotate(-10.5353)"/>
</clipPath>
<clipPath id="clip2_1077_32000">
<rect width="102.198" height="87.4312" fill="white" transform="translate(271.963 88.1721) rotate(6.32788)"/>
</clipPath>
</defs>
</svg>
